inDegrees=no
num_controls=7
num_derivatives=13
num_iterations=93
num_multipliers=7
num_parameters=0
num_slacks=7
num_states=26
objective=0.517106
objective_accelerations=0.039770
objective_balance=0.002256
objective_effort=0.043659
objective_height=0.419812
objective_ligament=0.011610
solver_duration=1251.039955
status=Solve_Succeeded
success=true
DataType=double
version=3
OpenSimVersion=4.5
endheader
time	/jointset/ground_pelvis/pelvis_tilt/value	/jointset/ground_pelvis/pelvis_tx/value	/jointset/ground_pelvis/pelvis_ty/value	/jointset/hip_l/hip_flexion_l/value	/jointset/hip_l/hip_adduction_l/value	/jointset/hip_l/hip_rotation_l/value	/jointset/back/lumbar_extension/value	/jointset/patellofemoral_l/patellar_flexion_l/value	/jointset/knee_l/knee_flexion_l/value	/jointset/knee_l/knee_adduction_l/value	/jointset/knee_l/knee_rotation_l/value	/jointset/ankle_l/ankle_angle_l/value	/jointset/subtalar_l/subtalar_angle_l/value	/jointset/ground_pelvis/pelvis_tilt/speed	/jointset/ground_pelvis/pelvis_tx/speed	/jointset/ground_pelvis/pelvis_ty/speed	/jointset/hip_l/hip_flexion_l/speed	/jointset/hip_l/hip_adduction_l/speed	/jointset/hip_l/hip_rotation_l/speed	/jointset/back/lumbar_extension/speed	/jointset/patellofemoral_l/patellar_flexion_l/speed	/jointset/knee_l/knee_flexion_l/speed	/jointset/knee_l/knee_adduction_l/speed	/jointset/knee_l/knee_rotation_l/speed	/jointset/ankle_l/ankle_angle_l/speed	/jointset/subtalar_l/subtalar_angle_l/speed	/forceset/tau_hip_flexion_l	/forceset/tau_hip_adduction_l	/forceset/tau_hip_rotation_l	/forceset/tau_knee_flexion_l	/forceset/tau_ankle_angle_l	/forceset/tau_subtalar_angle_l	/forceset/tau_lumbar_extension	lambda_cid13_p0	lambda_cid13_p1	lambda_cid13_p2	lambda_cid13_p3	lambda_cid13_p4	lambda_cid13_p5	lambda_cid14_p0	/jointset/ground_pelvis/pelvis_tilt/accel	/jointset/ground_pelvis/pelvis_tx/accel	/jointset/ground_pelvis/pelvis_ty/accel	/jointset/hip_l/hip_flexion_l/accel	/jointset/hip_l/hip_adduction_l/accel	/jointset/hip_l/hip_rotation_l/accel	/jointset/back/lumbar_extension/accel	/jointset/patellofemoral_l/patellar_flexion_l/accel	/jointset/knee_l/knee_flexion_l/accel	/jointset/knee_l/knee_adduction_l/accel	/jointset/knee_l/knee_rotation_l/accel	/jointset/ankle_l/ankle_angle_l/accel	/jointset/subtalar_l/subtalar_angle_l/accel	gamma_cid13_p0	gamma_cid13_p1	gamma_cid13_p2	gamma_cid13_p3	gamma_cid13_p4	gamma_cid13_p5	gamma_cid14_p0
1.5	-0.003841510610240365	-0.02527044377241588	0.8684685962644896	0.6254997359978585	-0.3131702613273089	-0.1748790413004764	-0.7861000633441318	0.6492509530632641	0.6492509530632729	-0.1074536452398803	-0.1744928781497737	0.07678326387063626	0.007294072275963882	0.358244941035812	0.2790850197607764	0.3454518563894572	-1.847492029736241	0.09361512542251153	-0.5416186764322124	0.848011186707311	-1.659202092958187	-1.659202092958177	-0.126653904085314	-0.0001597201159423923	-0.2602092464494859	0.01753264525289345	-0.199115379780658	0.02243978063015317	-0.004372891357431237	-0.1996453417197183	0.1024398727926139	0.03716150440136065	0.2784369597504355	-10.09807844065876	-16.39004403172864	4.464786783791937	-8.669764393121291	-674.1646610101213	-73.74857234620997	-19.63179063143048	-0.01848655762437063	0.6335261568872583	-0.4943905658265585	-0.6726088976752486	0.333151935929648	-0.2412792225195136	1.789938740879009	-0.7318878859424425	-0.7318878859424371	-0.3018499569024556	0.0395115255952002	-0.02135305923214151	0.3381788861669063	1.695013242324162e-08	1.090556487904379e-06	1.053441989126335e-07	1.560877744802369e-07	1.140021085226318e-07	1.785489496536303e-07	1.120061101336036e-07
1.51	-0.000260483623849931	-0.02244827345666457	0.8718976922003983	0.6069934028030916	-0.3122179509150707	-0.1803085768789429	-0.7775320720806175	0.6326244250376811	0.632624425037753	-0.108735203003909	-0.1744944623980282	0.07418028713675373	0.007485815390263676	0.3579002020104862	0.2853092963334571	0.3402970959545645	-1.853512808456457	0.09684104190637745	-0.5442388374090102	0.8654329738910549	-1.665876171261116	-1.665876171261106	-0.1296475714370894	-0.00016184961701882	-0.2603466797653766	0.02081994912862943	-0.1912052376544802	0.02121290624007888	-0.004347734103984827	-0.1972411805983594	0.1023336962233944	0.03636530247219055	0.2709351089891979	-9.921263127764842	-16.12781428509613	4.483064008298355	-8.445068646649883	-670.0769960167215	-73.82742024649991	-20.12612918649582	-0.05151589015914129	0.6109507081233779	-0.5365312518015419	-0.5275541722827336	0.3162388788049199	-0.2648494704162164	1.695184891509766	-0.6010889116748143	-0.6010889116749201	-0.2963983336244526	-0.02077484206772336	-0.003993243906334895	0.3243947156890959	7.259862859816996e-09	1.151768842930682e-06	1.493275191882479e-07	1.664549739376877e-07	1.138561075799158e-07	1.8369382541584e-07	1.114854873892911e-07
1.52	0.003315286309251839	-0.01956504591505361	0.8752731380380618	0.5884347134585035	-0.3112335958631601	-0.1857628070541998	-0.7687944857083884	0.6159379720072493	0.615937972007344	-0.1100463520833394	-0.1744962078720766	0.0715771251144853	0.007710509258803105	0.3571935303782587	0.2912964649327067	0.334721836740448	-1.857963259700198	0.1000240533578327	-0.5465575957920532	0.8819302084503102	-1.671187093932314	-1.671187093932305	-0.1325721671612342	-0.0001919652824430629	-0.2602463041268185	0.02412279610085357	-0.1832950955282951	0.01998603185002823	-0.004322576850858968	-0.1948370194769779	0.1022275196541849	0.03556910054305009	0.2634332582279575	-9.749603640372834	-15.86456539959143	4.501045688688442	-8.224673840045336	-666.0781156613695	-73.92568800176764	-20.59779665313355	-0.09087307900466352	0.5861045622010176	-0.5784903216713274	-0.3585434023801635	0.324570929447547	-0.1809987037685251	1.605028215981298	-0.4592567595964452	-0.459256759596438	-0.2880356313763502	0.03391429272565448	0.02620873165757437	0.3412875054645372	1.612883316304477e-09	1.17569890719922e-06	1.652499738467236e-07	1.692588653111603e-07	1.162025394593198e-07	1.867318829598908e-07	1.103787192108661e-07
1.53	0.006882271028328155	-0.01662320308564986	0.8785907698671735	0.5698394070971322	-0.3102176913007363	-0.1912384923971303	-0.7598967137660396	0.5992054336502975	0.5992054336503284	-0.1113865627971828	-0.1744982911533499	0.06897622671605834	0.007968263511598038	0.3561524827952022	0.2970248776427162	0.3287383841819528	-1.860830688775501	0.1031395656624139	-0.5485147097366752	0.8974521509537217	-1.675068750340643	-1.675068750340636	-0.135473258205425	-0.0002290407358476208	-0.2598866918929773	0.02742235522255509	-0.1754538027215458	0.01880664166304059	-0.004342746021183681	-0.1922773270980777	0.1018795579335844	0.03469455909694144	0.2559518711945364	-9.664845880623997	-15.55157544418257	4.510523526320977	-7.903338327162089	-662.1568685958091	-73.92579358712624	-21.04383082308064	-0.1183715382009357	0.5591583746840207	-0.6181696837167586	-0.2107568356926511	0.3022675756355332	-0.1932628393599971	1.499972907728602	-0.3148675586504295	-0.3148675586508798	-0.2914298318950563	-0.02316853200034544	0.04786982524345437	0.3232365276847169	2.618994189485194e-10	1.160016537537636e-06	1.513577587869897e-07	1.640267418454061e-07	1.211971812122262e-07	1.875314461471478e-07	1.086491715086963e-07
1.54	0.01043731508351974	-0.01362548637928949	0.8818465877785447	0.5512234436098847	-0.3091711863763439	-0.1967317878994048	-0.7508488832706155	0.582441629233832	0.5824416292337828	-0.1127558412196591	-0.1745008752026668	0.06638033091116992	0.008258802638042198	0.3548053976023545	0.3024712403240291	0.3223590531923475	-1.862094684874297	0.1061441257538822	-0.5500796276633337	0.9119419190654382	-1.677440305836945	-1.677440305836941	-0.1383857088878	-0.0002921188943251337	-0.2592457854192927	0.0306797708307287	-0.1676125099147898	0.01762725147607064	-0.004362915191664207	-0.1897176347191615	0.1015315962129965	0.03382001765086878	0.2484704841611135	-9.585581739346521	-15.23703247359096	4.519078576344615	-7.582850534145562	-658.3275901568285	-73.94284596208846	-21.4613055258379	-0.1520806009628832	0.529694556461651	-0.6576660078933688	-0.03785680707863846	0.302380486824985	-0.1025595001758628	1.398593337642323	-0.157236577191202	-0.1572365771911999	-0.290307559013192	0.02871375171109722	0.0824675796262089	0.3328588027589607	1.20641189269768e-09	1.124330790122545e-06	1.232521029247463e-07	1.561554931141909e-07	1.238315912192809e-07	1.881233686214931e-07	1.06972360689074e-07
1.55	0.01397734056999097	-0.01057473905961999	0.8850367199365852	0.5326028382862801	-0.3080951286148926	-0.2022384909170911	-0.7416612132370615	0.5656616403892927	0.5656616403892561	-0.1141542827241672	-0.1745038790214326	0.06379231369829226	0.008581797100909451	0.3531494510019084	0.3076287542420485	0.3156104774120152	-1.861763914536609	0.1090531672102499	-0.5511931588177091	0.9254268774818314	-1.678307095487708	-1.678307095487692	-0.1412921423302754	-0.0003035721155589021	-0.2583053438469243	0.03391913197454879	-0.1599669233196611	0.01638210848204953	-0.004427147596728465	-0.1871700318236107	0.1011655023172666	0.03298901821995666	0.2412343478919892	-9.53398008741377	-14.93590627968923	4.529030068374753	-7.26391800430553	-654.8825555904502	-74.00754996594839	-21.84733022440815	-0.179898632532933	0.5013872405025847	-0.6919637737824249	0.107903134451171	0.2828736496527295	-0.1054902906981063	1.298665569171944	-0.01386591322219751	-0.01386591322044632	-0.2890611263584915	-0.01532695141357734	0.1077049289623338	0.3193069761129507	4.795735402719984e-09	1.065597672687112e-06	7.877009135526461e-08	1.452435130988579e-07	1.237466037800285e-07	1.884760528831357e-07	1.05356311929778e-07
